 http://img33.imageshack.us/img33/3613/gametimel.jpg
[code]
Game Time The Duel 2011 DVDRip Xvid AC3-26K

Imdb: 
http://www.imdb.com/title/tt1941684/

Plot:
With a fresh start, trying to escape an abusive past, Vance and his mother have just moved to a new city

Sources:
own DVDR 

Notes:
eng subtitles in folder !
ENJOY!


Greetz:
Xtreme Encode|FYA|ILLUMANTI|CM8|RX|VISION|HDSCENE|NIGHTMAREZ|xTriLL|DTRG|CRYS|REMIXHD|BIDA
To all the people who have helped me :P you know who you are

Anything to offer email us @: 26k@hushmail.me

Video
ID                                       : 0
Format                                   : MPEG-4 Visual
Format profile                           : Advanced Simple@L5
Format settings, BVOP                    : 2
Format settings, QPel                    : No
Format settings, GMC                     : No warppoints
Format settings, Matrix                  : Default (H.263)
Muxing mode                              : Packed bitstream
Codec ID                                 : XVID
Codec ID/Hint                            : XviD
Duration                                 : 1h 40mn
Bit rate                                 : 2 298 Kbps
Width                                    : 720 pixels
Height                                   : 404 pixels
Display aspect ratio                     : 16:9
Frame rate                               : 23.976 fps
Color space                              : YUV
Chroma subsampling                       : 4:2:0
Bit depth                                : 8 bits
Scan type                                : Progressive
Compression mode                         : Lossy
Bits/(Pixel*Frame)                       : 0.330
Stream size                              : 1.62 GiB (83%)
Writing library                          : XviD 1.2.1 (UTC 2008-12-04)

Audio
ID                                       : 1
Format                                   : AC-3
Format/Info                              : Audio Coding 3
Mode extension                           : CM (complete main)
Codec ID                                 : 2000
Duration                                 : 1h 40mn
Bit rate mode                            : Constant
Bit rate                                 : 448 Kbps
Channel(s)                               : 6 channels
Channel positions                        : Front: L C R, Side: L R, LFE
Sampling rate                            : 48.0 KHz
Bit depth                                : 16 bits
Compression mode                         : Lossy
Stream size                              : 323 MiB (16%)
Alignment                                : Aligned on interleaves
Interleave, duration                     : 32 ms (0.77 video frame)
Interleave, preload duration             : 32 ms

[/code]
Screens: 
http://img833.imageshack.us/img833/9392/vlcsnap2011122718h04m27.png 
http://img94.imageshack.us/img94/5513/vlcsnap2011122718h04m32.png 
http://img705.imageshack.us/img705/7062/vlcsnap2011122718h04m45.png 
http://img850.imageshack.us/img850/895/vlcsnap2011122718h05m07.png 
http://img15.imageshack.us/img15/3597/vlcsnap2011122718h05m38.png
 
http://img851.imageshack.us/img851/5503/26ks.jpg
Thank you smallz for banner!